{
    "asset" : {
        "generator" : "Khronos glTF Blender I/O v3.3.27",
        "version" : "2.0"
    },
    "scene" : 0,
    "scenes" : [
        {
            "name" : "Scene",
            "nodes" : [
                0
            ]
        }
    ],
    "nodes" : [
        {
            "mesh" : 0,
            "name" : "shape 1",
            "rotation" : [
                -0.1335144191980362,
                -0.9902869462966919,
                0.018004151061177254,
                0.034373939037323
            ],
            "scale" : [
                0.3569657802581787,
                0.3569658100605011,
                0.35696566104888916
            ]
        }
    ],
    "materials" : [
        {
            "doubleSided" : true,
            "name" : "Material.006",
            "pbrMetallicRoughness" : {}
        }
    ],
    "meshes" : [
        {
            "name" : "Cube.003",
            "primitives" : [
                {
                    "attributes" : {
                        "POSITION" : 0,
                        "NORMAL" : 1,
                        "TEXCOORD_0" : 2
                    },
                    "indices" : 3,
                    "material" : 0
                }
            ]
        }
    ],
    "accessors" : [
        {
            "bufferView" : 0,
            "componentType" : 5126,
            "count" : 4179,
            "max" : [
                2.335956573486328,
                2.5352680683135986,
                1.692055344581604
            ],
            "min" : [
                -2.167651414871216,
                -2.556246280670166,
                -0.952138364315033
            ],
            "type" : "VEC3"
        },
        {
            "bufferView" : 1,
            "componentType" : 5126,
            "count" : 4179,
            "type" : "VEC3"
        },
        {
            "bufferView" : 2,
            "componentType" : 5126,
            "count" : 4179,
            "type" : "VEC2"
        },
        {
            "bufferView" : 3,
            "componentType" : 5123,
            "count" : 25062,
            "type" : "SCALAR"
        }
    ],
    "bufferViews" : [
        {
            "buffer" : 0,
            "byteLength" : 50148,
            "byteOffset" : 0,
            "target" : 34962
        },
        {
            "buffer" : 0,
            "byteLength" : 50148,
            "byteOffset" : 50148,
            "target" : 34962
        },
        {
            "buffer" : 0,
            "byteLength" : 33432,
            "byteOffset" : 100296,
            "target" : 34962
        },
        {
            "buffer" : 0,
            "byteLength" : 50124,
            "byteOffset" : 133728,
            "target" : 34963
        }
    ],
    "buffers" : [
        {
            "byteLength" : 183852,
            "uri" : "data:application/octet-stream;base64,"
        }
    ]
}
